<?xml version="1.0" encoding="UTF-8"?>
<svg xmlns="http://www.w3.org/2000/svg" xmlns:xlink="http://www.w3.org/1999/xlink" width="301pt" height="82pt" viewBox="0 0 301 82" version="1.1">
<g id="surface1">
<path style=" stroke:none;fill-rule:nonzero;fill:rgb(90.588235%,35.686275%,15.686275%);fill-opacity:1;" d="M 75.445312 81.949219 L 6.285156 81.949219 C 4.605469 81.949219 2.992188 81.273438 1.8125 80.074219 C 0.628906 78.878906 -0.0234375 77.253906 0 75.570312 L 0 6.375 C 0 2.902344 2.816406 0.0820312 6.285156 0.0820312 L 75.445312 0.0820312 C 78.96875 0.164062 81.777344 3.050781 81.765625 6.578125 L 81.765625 75.816406 C 81.765625 77.476562 81.09375 79.066406 79.902344 80.222656 C 78.710938 81.378906 77.105469 82 75.445312 81.949219 "/>
<path style=" stroke:none;fill-rule:nonzero;fill:rgb(100%,100%,100%);fill-opacity:1;" d="M 52.359375 31.117188 C 49.175781 30.054688 49.632812 29.320312 48.847656 28.300781 C 48.15625 27.679688 47.097656 27.738281 46.476562 28.425781 C 45.894531 29.011719 46.246094 30.265625 46.933594 30.882812 C 47.890625 31.757812 49.117188 32.277344 50.40625 32.363281 C 52.816406 32.617188 53.242188 31.394531 52.359375 31.117188 M 64.277344 19.941406 L 17.96875 19.941406 C 17.78125 19.945312 17.597656 19.960938 17.414062 19.996094 C 23.371094 13.316406 31.890625 9.492188 40.832031 9.480469 C 49.777344 9.472656 58.304688 13.277344 64.277344 19.941406 M 9.386719 40.996094 C 9.382812 37.316406 10.023438 33.667969 11.277344 30.214844 C 11.46875 30.789062 11.726562 31.335938 12.042969 31.851562 L 27.449219 54.039062 L 27.449219 67.746094 C 27.441406 68.363281 27.496094 68.976562 27.609375 69.585938 C 16.5 64.410156 9.394531 53.261719 9.386719 40.996094 M 32.34375 70.699219 C 31.347656 70.699219 30.699219 69.828125 30.699219 67.160156 L 30.699219 57.878906 C 32.132812 60.472656 34.128906 63.929688 34.128906 67.511719 C 34.128906 69.042969 33.355469 70.699219 32.34375 70.699219 M 38.789062 37.941406 C 40.234375 36.527344 41.65625 37.699219 40.914062 39.273438 C 39.878906 41.164062 38.15625 42.582031 36.105469 43.238281 C 36.390625 41.21875 37.335938 39.351562 38.789062 37.921875 M 40.859375 72.496094 C 39.269531 72.503906 37.679688 72.390625 36.105469 72.15625 C 37.265625 70.746094 37.828125 68.9375 37.675781 67.117188 C 37.675781 60.941406 30.699219 52.09375 30.699219 52.09375 L 30.699219 45.800781 C 31.242188 45.949219 31.847656 46.085938 32.515625 46.203125 C 32.628906 47.9375 33.148438 49.621094 34.03125 51.117188 C 34.789062 52.5625 36.261719 53.488281 37.886719 53.539062 C 41.242188 53.539062 44.257812 49.160156 45.246094 47.035156 C 45.035156 50.03125 45.054688 52.082031 45.796875 52.933594 C 46.203125 53.371094 46.789062 53.585938 47.382812 53.519531 C 49.417969 53.519531 51.226562 48.882812 53.539062 43.503906 C 53.433594 47.34375 53.253906 51.414062 53.265625 52.234375 C 53.273438 53.050781 53.699219 53.296875 54.507812 53.457031 C 54.886719 53.566406 55.296875 53.511719 55.640625 53.3125 C 55.984375 53.113281 56.230469 52.777344 56.320312 52.390625 C 58.042969 47.691406 60.570312 40.589844 61.324219 40.070312 C 61.652344 39.847656 61.070312 43.066406 60.8125 47.214844 C 60.558594 51.359375 61.25 53.179688 62.503906 53.347656 C 64.105469 53.582031 65.347656 52.648438 66.378906 50.46875 C 67.578125 47.949219 67.207031 46.832031 66.835938 46.449219 C 65.859375 45.386719 64.921875 49.214844 64.210938 49.054688 C 63.894531 48.988281 64.308594 44.738281 64.464844 42.367188 C 64.804688 37.273438 65.347656 35.402344 64.328125 35.039062 C 63.652344 34.773438 62.933594 34.636719 62.203125 34.636719 C 61.269531 34.636719 60.28125 35.613281 56.660156 44.3125 C 56.660156 44.3125 56.917969 37.027344 56.90625 35.625 C 56.90625 34.890625 56.269531 34.617188 55.535156 34.488281 C 54.820312 34.296875 54.070312 34.652344 53.761719 35.328125 C 52.171875 39.773438 48.929688 47.734375 48.625 47.851562 C 48.316406 47.96875 49.601562 36.953125 49.683594 35.847656 C 49.769531 34.742188 49.324219 34.667969 48.390625 34.488281 C 48 34.367188 47.578125 34.429688 47.238281 34.65625 C 46.898438 34.882812 46.675781 35.25 46.636719 35.65625 C 46.066406 39.15625 44.832031 42.511719 42.996094 45.546875 C 40.765625 48.957031 38.949219 50.097656 38.101562 50.097656 C 37.25 50.097656 36.199219 49.160156 35.976562 46.300781 C 39.386719 45.96875 42.59375 42.609375 43.410156 40.25 C 44.121094 38.242188 44.003906 36.667969 43.039062 35.582031 C 42.070312 34.5 40.363281 34.191406 38.546875 34.828125 C 35.273438 36.324219 33.023438 39.433594 32.621094 43.015625 C 31.972656 42.925781 31.328125 42.789062 30.699219 42.609375 L 30.699219 28.640625 C 30.664062 28.246094 30.472656 27.882812 30.167969 27.632812 C 29.859375 27.382812 29.464844 27.265625 29.074219 27.3125 C 28.679688 27.261719 28.285156 27.378906 27.980469 27.628906 C 27.671875 27.878906 27.480469 28.246094 27.449219 28.640625 L 27.449219 41.039062 C 27.136719 40.824219 26.847656 40.582031 26.578125 40.3125 C 25.007812 38.625 26.175781 36.847656 24.921875 36.859375 C 23.859375 36.859375 23.203125 39.539062 24.859375 41.8125 C 25.546875 42.824219 26.429688 43.691406 27.449219 44.363281 L 27.449219 48.300781 L 15.003906 30.222656 C 13.582031 28.035156 14.570312 25.546875 17.96875 25.546875 L 68.277344 25.546875 C 73.78125 35.304688 73.695312 47.253906 68.050781 56.925781 C 62.40625 66.601562 52.050781 72.546875 40.859375 72.539062 M 75.394531 40.996094 C 75.394531 21.898438 59.933594 6.417969 40.859375 6.417969 C 21.789062 6.417969 6.328125 21.898438 6.328125 40.996094 C 6.328125 60.089844 21.789062 75.570312 40.859375 75.570312 C 59.925781 75.550781 75.375 60.082031 75.394531 40.996094 "/>
<path style=" stroke:none;fill-rule:nonzero;fill:rgb(10.196078%,10.196078%,9.411765%);fill-opacity:1;" d="M 148.429688 9.523438 L 104.585938 9.523438 C 103.996094 9.523438 103.523438 10 103.523438 10.585938 L 103.523438 71.390625 C 103.523438 71.980469 103.996094 72.453125 104.585938 72.453125 L 117.941406 72.453125 C 118.527344 72.453125 119.003906 71.980469 119.003906 71.390625 L 119.003906 51.277344 L 145.050781 51.277344 C 145.640625 51.277344 146.113281 50.800781 146.113281 50.210938 L 146.113281 38.898438 C 146.113281 38.3125 145.640625 37.835938 145.050781 37.835938 L 119.058594 37.835938 L 119.058594 23.261719 L 148.429688 23.261719 C 149.015625 23.261719 149.492188 22.785156 149.492188 22.195312 L 149.492188 10.5 C 149.445312 9.949219 148.984375 9.523438 148.429688 9.523438 Z M 148.429688 9.523438 "/>
<path style=" stroke:none;fill-rule:nonzero;fill:rgb(10.196078%,10.196078%,9.411765%);fill-opacity:1;" d="M 204.507812 23.269531 C 205.09375 23.269531 205.570312 22.796875 205.570312 22.207031 L 205.570312 10.511719 C 205.570312 9.925781 205.09375 9.449219 204.507812 9.449219 L 158.847656 9.449219 C 158.261719 9.449219 157.785156 9.925781 157.785156 10.511719 L 157.785156 71.414062 C 157.785156 72 158.261719 72.476562 158.847656 72.476562 L 204.445312 72.476562 C 205.03125 72.476562 205.503906 72 205.503906 71.414062 L 205.503906 59.78125 C 205.503906 59.195312 205.03125 58.71875 204.445312 58.71875 L 173.382812 58.71875 L 173.382812 46.777344 L 199.632812 46.777344 C 200.21875 46.777344 200.695312 46.300781 200.695312 45.714844 L 200.695312 35.582031 C 200.695312 34.996094 200.21875 34.519531 199.632812 34.519531 L 173.382812 34.519531 L 173.382812 23.269531 Z M 204.507812 23.269531 "/>
<path style=" stroke:none;fill-rule:nonzero;fill:rgb(10.196078%,10.196078%,9.411765%);fill-opacity:1;" d="M 215.019531 9.523438 L 228.804688 9.523438 C 229.390625 9.523438 229.863281 10 229.863281 10.585938 L 229.863281 71.402344 C 229.863281 71.988281 229.390625 72.464844 228.804688 72.464844 L 215.019531 72.464844 C 214.433594 72.464844 213.957031 71.988281 213.957031 71.402344 L 213.957031 10.585938 C 213.957031 10 214.433594 9.523438 215.019531 9.523438 Z M 215.019531 9.523438 "/>
<path style=" stroke:none;fill-rule:nonzero;fill:rgb(10.196078%,10.196078%,9.411765%);fill-opacity:1;" d="M 299.917969 9.523438 L 285.390625 9.523438 C 284.804688 9.523438 284.328125 10 284.328125 10.585938 L 284.328125 46.863281 L 254.011719 10.34375 C 253.542969 9.84375 252.898438 9.550781 252.21875 9.523438 L 239.316406 9.523438 C 239.207031 9.535156 239.101562 9.558594 238.996094 9.585938 L 238.921875 9.652344 C 238.699219 9.75 238.523438 9.929688 238.421875 10.152344 C 238.390625 10.253906 238.367188 10.363281 238.359375 10.46875 C 238.359375 10.46875 238.359375 10.46875 238.359375 10.542969 L 238.359375 71.421875 C 238.367188 71.535156 238.386719 71.648438 238.421875 71.753906 C 238.417969 71.796875 238.417969 71.839844 238.421875 71.878906 C 238.515625 72.105469 238.695312 72.285156 238.921875 72.378906 C 239.035156 72.417969 239.152344 72.445312 239.273438 72.453125 L 253.917969 72.453125 C 254.03125 72.453125 254.148438 72.429688 254.257812 72.390625 L 254.371094 72.390625 C 254.601562 72.292969 254.78125 72.105469 254.871094 71.871094 C 254.910156 71.765625 254.933594 71.652344 254.9375 71.539062 C 254.941406 71.519531 254.941406 71.496094 254.9375 71.476562 L 254.9375 35.050781 L 285.941406 71.65625 C 286.410156 72.15625 287.054688 72.449219 287.738281 72.476562 L 299.875 72.476562 C 300.460938 72.476562 300.9375 72 300.9375 71.414062 L 300.9375 10.609375 C 300.949219 10.027344 300.496094 9.546875 299.917969 9.523438 Z M 299.917969 9.523438 "/>
</g>
</svg>
