<?xml version="1.0" encoding="UTF-8"?>
<svg xmlns="http://www.w3.org/2000/svg" xmlns:xlink="http://www.w3.org/1999/xlink" width="296pt" height="39pt" viewBox="0 0 296 39" version="1.1">
<g id="surface1">
<path style=" stroke:none;fill-rule:nonzero;fill:rgb(27.45098%,72.54902%,22.745098%);fill-opacity:1;" d="M 1.503906 38.550781 C 0.804688 38.550781 0.238281 37.980469 0.238281 37.28125 L 0.238281 1.761719 C 0.238281 1.0625 0.804688 0.492188 1.503906 0.492188 L 36.941406 0.492188 C 37.640625 0.492188 38.207031 1.0625 38.207031 1.761719 L 38.207031 6.835938 C 38.207031 7.171875 38.074219 7.496094 37.835938 7.730469 C 37.597656 7.96875 37.277344 8.101562 36.941406 8.101562 L 11.628906 8.101562 C 10.929688 8.101562 10.363281 8.671875 10.363281 9.371094 L 10.363281 14.445312 C 10.363281 15.148438 10.929688 15.714844 11.628906 15.714844 L 34.410156 15.714844 C 35.109375 15.714844 35.675781 16.28125 35.675781 16.980469 L 35.675781 22.054688 C 35.675781 22.757812 35.109375 23.324219 34.410156 23.324219 L 11.628906 23.324219 C 10.929688 23.324219 10.363281 23.894531 10.363281 24.59375 L 10.363281 37.28125 C 10.363281 37.980469 9.796875 38.546875 9.097656 38.546875 C 9.097656 38.550781 2.203125 38.550781 1.503906 38.550781 Z M 1.503906 38.550781 "/>
<path style=" stroke:none;fill-rule:nonzero;fill:rgb(27.45098%,72.54902%,22.745098%);fill-opacity:1;" d="M 258.835938 0.40625 C 258.136719 0.40625 257.570312 0.972656 257.570312 1.671875 L 257.570312 37.191406 C 257.570312 37.894531 258.136719 38.460938 258.835938 38.460938 L 294.273438 38.460938 C 294.972656 38.460938 295.539062 37.894531 295.539062 37.191406 L 295.539062 32.117188 C 295.539062 31.417969 294.972656 30.851562 294.273438 30.847656 L 268.960938 30.847656 C 268.261719 30.851562 267.695312 30.28125 267.695312 29.582031 C 267.695312 28.878906 267.664062 1.539062 267.664062 1.539062 C 267.664062 1.539062 267.75 0.410156 266.425781 0.40625 Z M 258.835938 0.40625 "/>
<path style=" stroke:none;fill-rule:nonzero;fill:rgb(27.45098%,72.54902%,22.745098%);fill-opacity:1;" d="M 40.738281 1.761719 C 40.738281 1.0625 41.304688 0.492188 42.003906 0.492188 L 79.972656 0.492188 C 80.671875 0.492188 81.238281 1.0625 81.238281 1.761719 L 81.238281 6.835938 C 81.238281 7.171875 81.105469 7.496094 80.867188 7.730469 C 80.628906 7.96875 80.308594 8.101562 79.972656 8.101562 L 52.128906 8.101562 C 51.429688 8.101562 50.863281 8.671875 50.863281 9.371094 L 50.863281 14.445312 C 50.863281 15.148438 51.429688 15.714844 52.128906 15.714844 L 77.441406 15.714844 C 78.140625 15.714844 78.707031 16.28125 78.707031 16.980469 L 78.707031 22.054688 C 78.707031 22.757812 78.140625 23.324219 77.441406 23.324219 L 52.128906 23.324219 C 51.429688 23.324219 50.863281 23.894531 50.863281 24.59375 L 50.863281 29.667969 C 50.863281 30.003906 50.996094 30.328125 51.234375 30.566406 C 51.472656 30.800781 51.792969 30.9375 52.128906 30.933594 L 79.972656 30.933594 C 80.671875 30.9375 81.238281 31.503906 81.238281 32.203125 L 81.238281 37.28125 C 81.238281 37.980469 80.671875 38.546875 79.972656 38.546875 L 42.003906 38.546875 C 41.304688 38.546875 40.738281 37.980469 40.738281 37.28125 Z M 40.738281 1.761719 "/>
<path style=" stroke:none;fill-rule:nonzero;fill:rgb(27.45098%,72.54902%,22.745098%);fill-opacity:1;" d="M 83.769531 15.714844 C 83.769531 19.917969 87.167969 23.328125 91.363281 23.328125 L 111.613281 23.328125 C 113.011719 23.324219 114.144531 24.460938 114.144531 25.863281 L 114.144531 28.402344 C 114.144531 29.800781 113.011719 30.9375 111.613281 30.9375 L 95.160156 30.9375 C 94.824219 30.9375 94.503906 30.804688 94.265625 30.566406 C 94.027344 30.328125 93.894531 30.007812 93.894531 29.671875 C 93.894531 28.96875 93.328125 28.402344 92.628906 28.402344 L 85.035156 28.402344 C 84.335938 28.402344 83.769531 28.96875 83.769531 29.667969 L 83.769531 30.9375 C 83.769531 35.140625 87.167969 38.550781 91.363281 38.550781 L 116.675781 38.550781 C 120.871094 38.550781 124.269531 35.140625 124.269531 30.9375 L 124.269531 23.328125 C 124.269531 19.121094 120.871094 15.714844 116.675781 15.714844 L 96.425781 15.714844 C 95.027344 15.714844 93.894531 14.578125 93.894531 13.175781 L 93.894531 10.640625 C 93.894531 9.238281 95.027344 8.101562 96.425781 8.101562 L 112.878906 8.101562 C 113.578125 8.101562 114.144531 8.671875 114.144531 9.371094 C 114.144531 10.074219 114.710938 10.640625 115.410156 10.640625 L 123.003906 10.640625 C 123.703125 10.640625 124.269531 10.074219 124.269531 9.371094 L 124.269531 8.101562 C 124.269531 3.898438 120.871094 0.492188 116.675781 0.492188 L 91.363281 0.492188 C 87.167969 0.492188 83.769531 3.898438 83.769531 8.101562 Z M 83.769531 15.714844 "/>
<path style=" stroke:none;fill-rule:nonzero;fill:rgb(27.45098%,72.54902%,22.745098%);fill-opacity:1;" d="M 126.800781 1.761719 C 126.800781 1.0625 127.367188 0.492188 128.066406 0.492188 L 166.035156 0.492188 C 166.734375 0.492188 167.300781 1.0625 167.300781 1.761719 L 167.300781 6.835938 C 167.300781 7.171875 167.167969 7.492188 166.929688 7.730469 C 166.691406 7.96875 166.371094 8.101562 166.035156 8.101562 L 153.378906 8.101562 C 152.679688 8.101562 152.113281 8.671875 152.113281 9.371094 L 152.113281 37.28125 C 152.113281 37.980469 151.546875 38.550781 150.847656 38.550781 L 143.253906 38.550781 C 142.554688 38.550781 141.988281 37.980469 141.988281 37.28125 L 141.988281 9.371094 C 141.988281 8.671875 141.421875 8.101562 140.722656 8.101562 L 128.066406 8.101562 C 127.367188 8.105469 126.800781 7.535156 126.800781 6.835938 Z M 126.800781 1.761719 "/>
<path style=" stroke:none;fill-rule:nonzero;fill:rgb(27.45098%,72.54902%,22.745098%);fill-opacity:1;" d="M 177.425781 38.550781 C 173.230469 38.550781 169.832031 35.140625 169.832031 30.9375 L 169.832031 8.101562 C 169.832031 3.902344 173.234375 0.492188 177.425781 0.492188 L 202.738281 0.492188 C 206.933594 0.492188 210.332031 3.902344 210.332031 8.101562 L 210.332031 30.9375 C 210.332031 35.140625 206.933594 38.550781 202.738281 38.550781 Z M 182.488281 30.9375 L 197.675781 30.9375 C 199.074219 30.9375 200.207031 29.800781 200.207031 28.402344 L 200.207031 10.640625 C 200.207031 9.238281 199.074219 8.101562 197.675781 8.101562 L 182.488281 8.101562 C 181.089844 8.105469 179.957031 9.242188 179.957031 10.640625 L 179.957031 28.402344 C 179.957031 29.800781 181.089844 30.9375 182.488281 30.9375 Z M 182.488281 30.9375 "/>
<path style=" stroke:none;fill-rule:nonzero;fill:rgb(27.45098%,72.54902%,22.745098%);fill-opacity:1;" d="M 221.40625 38.65625 C 217.210938 38.65625 213.8125 35.25 213.8125 31.046875 L 213.8125 8.210938 C 213.8125 4.007812 217.210938 0.597656 221.40625 0.597656 L 246.71875 0.597656 C 250.914062 0.597656 254.3125 4.007812 254.3125 8.210938 L 254.3125 31.046875 C 254.3125 35.25 250.914062 38.65625 246.71875 38.65625 Z M 226.46875 31.046875 L 241.65625 31.046875 C 242.328125 31.046875 242.972656 30.777344 243.445312 30.300781 C 243.921875 29.824219 244.1875 29.179688 244.1875 28.503906 L 244.1875 10.746094 C 244.1875 9.347656 243.054688 8.210938 241.65625 8.210938 L 226.46875 8.210938 C 225.070312 8.210938 223.9375 9.347656 223.9375 10.746094 L 223.9375 28.503906 C 223.9375 29.179688 224.203125 29.824219 224.679688 30.300781 C 225.152344 30.777344 225.796875 31.046875 226.46875 31.046875 Z M 226.46875 31.046875 "/>
</g>
</svg>
