<?xml version="1.0" encoding="UTF-8"?>
<svg xmlns="http://www.w3.org/2000/svg" xmlns:xlink="http://www.w3.org/1999/xlink" width="300pt" height="152pt" viewBox="0 0 300 152" version="1.1">
<g id="surface1">
<path style=" stroke:none;fill-rule:nonzero;fill:rgb(67.45098%,11.764706%,21.176471%);fill-opacity:1;" d="M 298.148438 76 C 298.148438 76 247.222656 2.78125 149.628906 2.410156 C 55 2.222656 2.035156 75.816406 2.035156 75.816406 L 1.851562 76.183594 C 1.851562 76.183594 55 149.777344 149.628906 149.589844 C 247.222656 149.21875 298.148438 76 298.148438 76 Z M 298.148438 76 "/>
<path style=" stroke:none;fill-rule:nonzero;fill:rgb(100%,100%,100%);fill-opacity:1;" d="M 87.222656 84.15625 C 86.296875 84.527344 85.371094 84.710938 84.445312 84.710938 C 83.332031 84.710938 82.40625 84.710938 81.851562 84.527344 C 81.296875 84.339844 80.925781 84.15625 80.371094 83.785156 C 80 83.414062 79.628906 83.042969 79.628906 82.671875 C 79.628906 82.300781 79.628906 81.746094 79.628906 81.191406 C 79.628906 80.261719 79.816406 79.523438 80.371094 78.964844 C 80.925781 78.410156 81.480469 78.039062 82.40625 77.667969 C 83.148438 77.484375 84.257812 77.296875 85.742188 77.113281 C 87.222656 76.925781 88.519531 76.742188 89.816406 76.742188 L 89.816406 82.671875 C 89.074219 83.230469 88.148438 83.785156 87.222656 84.15625 Z M 89.816406 90.273438 L 99.074219 90.273438 L 99.074219 70.625 C 99.074219 67.101562 97.964844 64.691406 95.554688 63.023438 C 93.148438 61.355469 89.445312 60.613281 84.074219 60.613281 C 81.851562 60.613281 79.628906 60.800781 77.40625 61.171875 C 75.183594 61.542969 73.703125 61.726562 72.59375 62.097656 L 72.59375 68.957031 L 73.519531 68.957031 C 74.257812 68.585938 75.554688 68.214844 77.222656 67.660156 C 78.890625 67.101562 80.554688 66.917969 82.035156 66.917969 C 84.628906 66.917969 86.480469 67.289062 87.777344 67.84375 C 89.074219 68.398438 89.628906 69.511719 89.628906 71.179688 L 89.628906 71.367188 C 86.851562 71.550781 84.257812 71.738281 81.851562 72.105469 C 79.257812 72.476562 77.222656 73.035156 75.554688 73.777344 C 73.890625 74.515625 72.59375 75.628906 71.480469 76.925781 C 70.554688 78.222656 70 79.894531 70 82.117188 C 70 84.710938 70.925781 86.9375 72.777344 88.605469 C 74.628906 90.273438 76.851562 91.199219 79.628906 91.199219 C 80.742188 91.199219 81.851562 91.015625 82.777344 90.828125 C 83.703125 90.644531 84.628906 90.273438 85.554688 89.902344 C 86.109375 89.53125 86.851562 89.160156 87.59375 88.605469 C 88.332031 88.046875 88.890625 87.679688 89.445312 87.308594 L 89.445312 90.273438 Z M 89.816406 90.273438 "/>
<path style=" stroke:none;fill-rule:nonzero;fill:rgb(100%,100%,100%);fill-opacity:1;" d="M 136.296875 69.882812 L 136.296875 90.273438 L 127.035156 90.273438 L 127.035156 75.816406 C 127.035156 74.332031 127.035156 73.21875 126.851562 72.292969 C 126.851562 71.367188 126.667969 70.4375 126.296875 69.882812 C 125.925781 69.328125 125.554688 68.769531 125 68.585938 C 124.445312 68.214844 123.519531 68.214844 122.40625 68.214844 C 121.480469 68.214844 120.554688 68.398438 119.816406 68.769531 C 118.890625 69.140625 118.148438 69.511719 117.59375 69.882812 L 117.59375 90.273438 L 108.332031 90.273438 L 108.332031 61.355469 L 117.59375 61.355469 L 117.59375 64.507812 C 119.257812 63.210938 120.742188 62.28125 122.222656 61.542969 C 123.703125 60.800781 125.183594 60.429688 127.035156 60.429688 C 128.890625 60.429688 130.554688 60.800781 132.035156 61.726562 C 133.519531 62.652344 134.628906 63.765625 135.371094 65.433594 C 137.222656 63.953125 139.074219 62.652344 140.742188 61.726562 C 142.40625 60.800781 144.257812 60.429688 145.925781 60.429688 C 149.074219 60.429688 151.296875 61.355469 152.964844 63.210938 C 154.628906 65.0625 155.371094 67.84375 155.371094 71.367188 L 155.371094 90.085938 L 146.109375 90.085938 L 146.109375 75.628906 C 146.109375 74.144531 146.109375 73.035156 146.109375 72.105469 C 146.109375 71.179688 145.925781 70.253906 145.554688 69.699219 C 145.183594 69.140625 144.816406 68.585938 144.257812 68.398438 C 143.703125 68.027344 142.777344 68.027344 141.667969 68.027344 C 140.925781 68.027344 140.183594 68.214844 139.445312 68.398438 C 138.148438 68.769531 137.40625 69.140625 136.296875 69.882812 Z M 136.296875 69.882812 "/>
<path style=" stroke:none;fill-rule:nonzero;fill:rgb(100%,100%,100%);fill-opacity:1;" d="M 171.296875 72.105469 C 171.480469 70.066406 172.035156 68.585938 173.148438 67.660156 C 174.257812 66.730469 175.742188 66.359375 177.40625 66.359375 C 179.257812 66.359375 180.742188 66.917969 181.667969 67.84375 C 182.59375 68.769531 182.964844 70.253906 183.148438 72.105469 Z M 192.40625 74.332031 C 192.40625 69.882812 191.296875 66.359375 188.890625 64.136719 C 186.480469 61.726562 182.964844 60.613281 178.332031 60.613281 C 173.332031 60.613281 169.257812 62.097656 166.296875 64.878906 C 163.332031 67.660156 161.851562 71.367188 161.851562 76.183594 C 161.851562 81.003906 163.332031 84.710938 166.480469 87.308594 C 169.628906 89.902344 173.890625 91.199219 179.816406 91.199219 C 182.035156 91.199219 184.074219 91.015625 185.925781 90.644531 C 187.777344 90.273438 189.816406 89.71875 191.851562 88.789062 L 191.851562 81.375 L 190.742188 81.375 C 189.628906 82.117188 188.332031 82.859375 186.480469 83.601562 C 184.628906 84.339844 182.777344 84.710938 180.742188 84.710938 C 177.59375 84.710938 175.371094 84.15625 173.703125 82.859375 C 172.035156 81.746094 171.296875 79.894531 171.109375 77.667969 L 192.222656 77.667969 L 192.222656 74.332031 Z M 192.40625 74.332031 "/>
<path style=" stroke:none;fill-rule:nonzero;fill:rgb(100%,100%,100%);fill-opacity:1;" d="M 210 90.273438 L 200.742188 90.273438 L 200.742188 50.234375 L 210 50.234375 Z M 210 90.273438 "/>
<path style=" stroke:none;fill-rule:nonzero;fill:rgb(100%,100%,100%);fill-opacity:1;" d="M 227.964844 90.273438 L 218.703125 90.273438 L 218.703125 50.234375 L 227.964844 50.234375 Z M 227.964844 90.273438 "/>
<path style=" stroke:none;fill-rule:nonzero;fill:rgb(100%,100%,100%);fill-opacity:1;" d="M 253.519531 84.339844 C 252.777344 84.710938 252.035156 84.710938 251.109375 84.710938 C 250.183594 84.710938 249.257812 84.527344 248.519531 84.339844 C 247.777344 83.972656 247.035156 83.601562 246.480469 82.859375 C 245.925781 82.117188 245.554688 81.191406 245.183594 80.078125 C 244.816406 78.964844 244.816406 77.484375 244.816406 76 C 244.816406 74.332031 245 72.847656 245.371094 71.550781 C 245.742188 70.4375 246.109375 69.511719 246.667969 68.769531 C 247.222656 68.027344 247.964844 67.660156 248.703125 67.289062 C 249.445312 67.101562 250.183594 66.917969 251.109375 66.917969 C 252.035156 66.917969 252.777344 67.101562 253.519531 67.289062 C 254.257812 67.660156 255 68.027344 255.554688 68.769531 C 256.109375 69.511719 256.480469 70.4375 256.851562 71.550781 C 257.222656 72.664062 257.222656 74.144531 257.222656 75.816406 C 257.222656 77.667969 257.035156 79.152344 256.851562 80.078125 C 256.480469 81.191406 256.109375 81.933594 255.554688 82.671875 C 254.816406 83.601562 254.257812 83.972656 253.519531 84.339844 Z M 262.59375 64.691406 C 259.816406 61.914062 255.925781 60.613281 250.925781 60.613281 C 245.925781 60.613281 242.035156 61.914062 239.257812 64.691406 C 236.480469 67.472656 235 71.179688 235 76 C 235 80.820312 236.296875 84.527344 239.074219 87.308594 C 241.851562 90.085938 245.742188 91.386719 250.742188 91.386719 C 255.742188 91.386719 259.628906 90.085938 262.40625 87.308594 C 265.183594 84.527344 266.480469 80.820312 266.480469 76 C 266.851562 71.179688 265.371094 67.289062 262.59375 64.691406 Z M 262.59375 64.691406 "/>
<path style=" stroke:none;fill-rule:nonzero;fill:rgb(100%,100%,100%);fill-opacity:1;" d="M 64.816406 89.902344 L 41.851562 89.902344 L 41.851562 51.53125 L 51.109375 51.53125 L 51.109375 82.488281 L 64.816406 82.488281 Z M 64.816406 89.902344 "/>
</g>
</svg>
