<?xml version="1.0" encoding="UTF-8"?>
<svg xmlns="http://www.w3.org/2000/svg" xmlns:xlink="http://www.w3.org/1999/xlink" width="300pt" height="128pt" viewBox="0 0 300 128" version="1.1">
<g id="surface1">
<path style=" stroke:none;fill-rule:nonzero;fill:rgb(0%,38.823529%,54.509804%);fill-opacity:1;" d="M 214.421875 63.761719 C 218.285156 55.003906 220.875 53.46875 222.15625 54.867188 C 224.433594 57.359375 220.871094 65.371094 217.753906 68.628906 C 216.53125 69.90625 213.9375 70.894531 211.921875 69.441406 Z M 136.5625 60.835938 C 138.863281 56.140625 138.378906 51.023438 133.066406 50.832031 C 129.414062 50.703125 126.195312 55.386719 123.300781 57.71875 L 125.339844 52.382812 L 112.203125 52.382812 C 106.609375 61.679688 100.269531 71.160156 92.382812 77.933594 C 92.082031 78.1875 91.890625 77.871094 92.039062 77.457031 C 95.0625 68.890625 98.914062 60.835938 101.828125 52.382812 L 88.421875 52.382812 C 79.214844 65.484375 69.308594 74.921875 59.636719 85.484375 L 62.664062 85.484375 C 69.660156 79.855469 76.421875 71.960938 82.59375 65.203125 C 81.617188 68.195312 79.859375 71.453125 78.625 74.738281 C 76.59375 80.136719 76.214844 88.238281 82.328125 88.238281 C 89.910156 88.238281 99.847656 74.8125 104.976562 69.003906 L 98.359375 85.960938 L 112.34375 85.960938 C 114.226562 81.585938 116.472656 74.59375 118.710938 69.425781 C 120.238281 65.894531 121.722656 62.875 123.15625 62.808594 C 124.574219 62.746094 124.179688 65.988281 126.421875 66.890625 C 130.355469 68.476562 134.316406 65.421875 136.5625 60.835938 Z M 116.679688 85.960938 L 120.058594 85.960938 L 133.699219 71.589844 L 132.1875 75.890625 C 130.746094 80.539062 130.535156 88.238281 136.664062 88.238281 C 142.859375 88.238281 151.785156 76.230469 155.664062 71.089844 L 153.828125 76.59375 C 152.554688 80.863281 152.226562 88.238281 157.976562 88.238281 C 164.773438 88.238281 171.742188 77.921875 176.855469 72.992188 C 174.808594 77.871094 171.363281 88.234375 179.296875 88.246094 C 184.519531 88.257812 193.617188 80.015625 195.617188 77.710938 C 194.429688 84.105469 197.839844 88.238281 203.269531 88.238281 C 204.6875 88.238281 206.242188 88.039062 207.894531 87.390625 C 221.535156 82.039062 231.78125 71.390625 243.617188 60.878906 C 247.425781 57.496094 247.007812 68.355469 247.195312 72.710938 C 246.519531 73.746094 245.355469 74.835938 244.492188 75.058594 C 243.445312 72.101562 241.371094 70.695312 238.898438 70.695312 C 234.570312 70.695312 230.140625 74.253906 228.628906 79.46875 C 227.222656 83.980469 228.398438 88.214844 232.554688 88.234375 C 237.742188 88.265625 245.007812 80.0625 247.589844 77.878906 C 248.070312 82.988281 249.316406 88.078125 254.703125 88.234375 C 263.496094 88.496094 275.832031 74.925781 281.171875 67.585938 L 278.878906 65.902344 C 275.105469 70.53125 270.871094 75.980469 265.824219 79.425781 C 265.046875 79.957031 264.453125 80.050781 263.492188 79.707031 C 259.671875 78.34375 260.460938 70.976562 260.226562 65.902344 C 260.847656 64.878906 262.222656 62.554688 262.902344 63.132812 C 263.789062 63.890625 263.917969 65.449219 264.425781 66.609375 C 265.550781 69.175781 268.753906 69.371094 270.839844 68.300781 C 274.296875 66.519531 277.808594 63.28125 278.878906 58.859375 C 280.90625 50.496094 275.414062 48.867188 269.8125 51.75 C 265.691406 53.875 261.78125 58.28125 259.101562 60.777344 C 258.753906 58.664062 258.015625 54.777344 256.851562 53.085938 C 255.332031 50.410156 251.441406 50.636719 249.304688 52.132812 C 236.507812 61.082031 225.574219 74.945312 211.511719 82.039062 C 207.871094 84.40625 206.648438 82.808594 207.308594 80.160156 C 207.96875 77.515625 209.878906 73.898438 210.609375 72.460938 C 213.289062 73.867188 216.785156 74.167969 219.902344 73.652344 C 224.386719 72.902344 229.460938 68.582031 230.507812 62.804688 C 231.09375 59.847656 230.953125 56.355469 229.109375 54.070312 C 223.484375 47.09375 211.558594 52.949219 204.285156 60.550781 C 199.785156 65.25 189.878906 79.878906 191.539062 75.390625 C 193.601562 69.144531 196.476562 61.960938 198.921875 55.761719 C 201.945312 55.785156 207.847656 55.660156 208.171875 51.753906 L 200.195312 51.753906 L 205.101562 38.15625 L 190.765625 38.15625 C 189.25 42.945312 187.386719 47.589844 185.171875 52.097656 C 182.753906 52.210938 179.0625 52.101562 178.242188 55.761719 L 183.773438 55.761719 C 180.859375 63.789062 174.5 71.335938 168.554688 76.96875 C 167.59375 77.933594 167.945312 76.5625 168.152344 76.046875 L 177.710938 52.378906 L 163.722656 52.382812 C 158.714844 61.253906 153.828125 69.328125 146.554688 76.378906 C 145.695312 77.214844 145.605469 76.65625 145.847656 75.960938 C 148.613281 67.914062 152.144531 60.378906 155.027344 52.378906 C 150.554688 52.378906 146.378906 52.378906 141.578125 52.378906 C 135.558594 66.785156 126.722656 74.898438 116.679688 85.960938 Z M 281.675781 34.070312 C 255.789062 13.488281 217.464844 3.429688 178.117188 2.730469 C 138.089844 2.019531 104.117188 9.894531 75.421875 37.898438 C 61.996094 50.996094 41.378906 86.382812 29.476562 91.28125 L 54.277344 27.734375 C 56.449219 22.148438 56.816406 17.355469 51.246094 16.183594 C 42.113281 14.257812 25.425781 19.203125 13.046875 24.144531 C 8.640625 25.902344 3.179688 28.527344 2.523438 33.792969 C 7.976562 31.144531 21.667969 25.148438 32.617188 23.609375 C 33.320312 23.507812 34.015625 23.414062 34.695312 23.367188 C 37.066406 23.214844 37.175781 25.046875 36.675781 26.324219 L 9.285156 96.328125 L 7.984375 99.871094 C 37.242188 106.488281 52.71875 68.101562 71.875 48.015625 C 94.097656 24.71875 123.175781 20.550781 152.179688 18.578125 C 191.527344 15.898438 231.097656 18.144531 265.472656 32.382812 C 276.675781 37.019531 293.976562 46.257812 293.625 64.675781 C 292.941406 100.613281 225.910156 109.441406 198.621094 110.496094 C 162.210938 111.90625 124.535156 105.085938 93.207031 94.640625 C 119.808594 117.605469 165.746094 125.488281 199.082031 125.128906 C 236.640625 124.722656 296.765625 103.527344 297.066406 64.859375 C 297.164062 52.171875 290.582031 41.152344 281.675781 34.070312 Z M 63.757812 98.324219 C 63.640625 98.390625 63.460938 98.425781 63.222656 98.425781 L 62.03125 98.425781 L 62.03125 96.792969 L 63.253906 96.792969 C 63.484375 96.792969 63.652344 96.828125 63.769531 96.898438 C 63.96875 97.027344 64.070312 97.273438 64.070312 97.640625 C 64.070312 97.984375 63.964844 98.210938 63.757812 98.324219 Z M 65.015625 101.316406 C 64.996094 101.21875 64.984375 101.03125 64.984375 100.75 L 64.984375 100.34375 C 64.984375 99.917969 64.9375 99.601562 64.839844 99.394531 C 64.746094 99.1875 64.582031 99.023438 64.347656 98.910156 C 64.625 98.796875 64.824219 98.601562 64.945312 98.324219 C 65.066406 98.039062 65.125 97.753906 65.125 97.464844 C 65.125 97.226562 65.09375 97.015625 65.03125 96.832031 C 64.96875 96.640625 64.878906 96.472656 64.773438 96.316406 C 64.640625 96.128906 64.476562 95.988281 64.285156 95.890625 C 64.097656 95.796875 63.828125 95.742188 63.472656 95.734375 L 61.003906 95.734375 L 61.003906 101.816406 L 62.03125 101.816406 L 62.03125 99.433594 L 63.121094 99.433594 C 63.429688 99.433594 63.640625 99.496094 63.75 99.625 C 63.863281 99.757812 63.921875 100.015625 63.929688 100.40625 L 63.933594 100.96875 C 63.9375 101.144531 63.953125 101.324219 63.980469 101.492188 C 63.992188 101.574219 64.015625 101.683594 64.046875 101.820312 L 65.207031 101.820312 L 65.207031 101.667969 C 65.105469 101.589844 65.039062 101.472656 65.015625 101.316406 Z M 62.789062 103.695312 C 60.53125 103.695312 58.695312 101.472656 58.695312 98.742188 C 58.695312 96.011719 60.53125 93.792969 62.789062 93.792969 C 65.050781 93.792969 66.886719 96.011719 66.886719 98.742188 C 66.886719 101.472656 65.050781 103.695312 62.789062 103.695312 Z M 62.789062 92.792969 C 60.078125 92.792969 57.871094 95.464844 57.871094 98.742188 C 57.871094 102.023438 60.078125 104.691406 62.789062 104.691406 C 65.503906 104.691406 67.710938 102.023438 67.710938 98.742188 C 67.710938 95.464844 65.503906 92.792969 62.789062 92.792969 Z M 98.179688 35.296875 C 102.496094 35.296875 106.019531 38.128906 106.019531 41.601562 C 106.019531 45.074219 102.496094 47.910156 98.179688 47.910156 C 93.863281 47.910156 90.34375 45.074219 90.34375 41.601562 C 90.34375 38.128906 93.863281 35.296875 98.179688 35.296875 Z M 98.179688 35.296875 "/>
</g>
</svg>
