<?xml version="1.0" encoding="UTF-8"?>
<svg xmlns="http://www.w3.org/2000/svg" xmlns:xlink="http://www.w3.org/1999/xlink" width="300pt" height="81pt" viewBox="0 0 300 81" version="1.1">
<g id="surface1">
<path style=" stroke:none;fill-rule:evenodd;fill:rgb(0%,12.54902%,36.078431%);fill-opacity:1;" d="M 177.199219 21.105469 L 156.074219 21.105469 L 144.136719 77.511719 L 166.929688 77.511719 L 173.417969 47.210938 C 174.746094 41.347656 177.679688 36.457031 184.636719 36.457031 C 188.554688 36.457031 192.316406 38.25 191.015625 44.324219 L 183.976562 77.511719 L 206.59375 77.511719 L 213.378906 45.660156 C 214.417969 40.796875 214.964844 37.402344 214.964844 34.902344 C 214.964844 23.824219 204.949219 19.691406 194.894531 19.691406 C 189.160156 19.691406 182.050781 22 177.199219 26.820312 Z M 16.355469 0 L 0 77.507812 L 50.191406 77.507812 C 54.125 77.507812 58.414062 76.722656 62.421875 75.121094 C 73.121094 70.84375 80.945312 57.5625 75.917969 46.28125 C 74.058594 42.117188 71.375 39.671875 67.925781 37.664062 C 74.742188 35.125 79.863281 29.386719 80.6875 21.417969 C 81.867188 10.097656 72.734375 0 60.53125 0 Z M 30.652344 44.589844 L 44.734375 44.589844 C 49.820312 44.589844 54.496094 45.472656 54.128906 51.21875 C 53.75 57.210938 48.160156 59.039062 43.851562 59.039062 L 27.628906 59.039062 Z M 36.34375 17.527344 L 50.917969 17.527344 C 55.226562 17.527344 59.117188 18.796875 58.605469 23.515625 C 58.027344 28.777344 52.871094 30.140625 49.5625 30.140625 L 33.738281 30.140625 L 36.347656 17.527344 Z M 80.628906 52.570312 C 80.628906 72.363281 93.964844 78.976562 110.398438 78.976562 C 137.867188 78.976562 146.371094 58.875 146.371094 44.421875 C 146.371094 27.367188 134.878906 19.761719 117.410156 19.761719 C 93.042969 19.761719 80.628906 35.417969 80.628906 52.570312 Z M 103.625 48.976562 C 105.011719 40.820312 109.714844 34.328125 116.09375 34.328125 C 122.660156 34.328125 124.9375 41.058594 123.554688 49.214844 C 122.171875 57.371094 117.480469 63.871094 111.085938 63.871094 C 104.535156 63.871094 102.246094 57.140625 103.625 48.976562 Z M 237.359375 60.019531 C 237.359375 56.53125 240.820312 54.640625 244.433594 54.046875 C 252.878906 52.664062 256.179688 50.808594 256.179688 50.808594 C 254.476562 60.011719 250.585938 64.46875 244.324219 64.972656 C 240.09375 65.320312 237.359375 63.679688 237.359375 60.019531 Z M 244.0625 39.078125 C 245.273438 34.84375 248.425781 32.367188 252.960938 32.273438 C 256.277344 32.207031 259.816406 33.34375 259.816406 36.714844 C 259.816406 42.433594 247.59375 42.378906 241.429688 43.042969 C 224.976562 44.800781 213.691406 48.566406 213.691406 63.449219 C 213.691406 74.203125 222.421875 78.941406 232.257812 78.941406 C 238.472656 78.941406 246.277344 78.496094 251.890625 73.535156 C 251.65625 74.832031 251.898438 76.277344 252.191406 77.511719 L 276.046875 77.511719 C 275.230469 75.511719 274.847656 72.632812 275.75 68.351562 L 281.730469 40.148438 C 285.671875 21.558594 265.78125 19.730469 252.289062 19.730469 C 238.253906 19.730469 223.855469 24.085938 220.429688 39.078125 Z M 291.171875 22.996094 C 296.105469 22.996094 300 19.164062 300 14.359375 C 300 9.554688 296.105469 5.726562 291.171875 5.726562 C 286.238281 5.726562 282.347656 9.554688 282.347656 14.359375 C 282.347656 19.164062 286.238281 22.992188 291.171875 22.992188 Z M 291.171875 21.667969 C 287.140625 21.667969 283.695312 18.433594 283.695312 14.359375 C 283.695312 10.285156 287.140625 7.054688 291.171875 7.054688 C 295.203125 7.054688 298.648438 10.285156 298.648438 14.359375 C 298.648438 18.433594 295.203125 21.667969 291.171875 21.667969 Z M 292.453125 14.671875 C 294.164062 14.625 295.496094 13.9375 295.496094 12.078125 C 295.496094 10.042969 293.804688 9.578125 292.074219 9.578125 L 287.882812 9.578125 L 287.882812 19.03125 L 289.234375 19.03125 L 289.234375 14.671875 L 290.851562 14.671875 L 293.742188 19.03125 L 295.359375 19.03125 Z M 289.234375 13.339844 L 289.234375 10.90625 L 291.796875 10.90625 C 292.839844 10.90625 294.144531 11.082031 294.144531 12.058594 C 294.144531 13.5625 292.050781 13.339844 290.851562 13.339844 Z M 289.234375 13.339844 "/>
</g>
</svg>
